<?xml version="1.0" encoding="UTF-8"?><svg id="Layer_2" xmlns="http://www.w3.org/2000/svg" viewBox="0 0 131.87 151.91"><defs><style>.cls-1{font-family:BarlowSemiCondensed-SemiBold, 'Barlow Semi Condensed';font-size:9px;font-weight:600;}.cls-1,.cls-2,.cls-3{fill:#131718;}.cls-4{letter-spacing:0em;}.cls-5{fill:#f6e2d9;}.cls-6{fill:#ecb4a0;}.cls-7{fill:#da5e47;}.cls-8{letter-spacing:-.01em;}.cls-9{letter-spacing:0em;}.cls-10{letter-spacing:0em;}.cls-3{font-family:BarlowSemiCondensed-Light, 'Barlow Semi Condensed';font-size:8px;font-weight:300;}.cls-11{letter-spacing:0em;}.cls-12{letter-spacing:0em;}</style></defs><g id="INFO"><g id="diagram"><g id="leftbench"><g id="Estados_Unidos_Oro"><path class="cls-7" d="m29.58,38.04h0c1.31,0,2.37,1.06,2.37,2.37h0c0,1.31-1.06,2.37-2.37,2.37h0c-1.31,0-2.37-1.06-2.37-2.37h0c0-1.31,1.06-2.37,2.37-2.37Z"/><path class="cls-7" d="m29.58,32.78h0c1.31,0,2.37,1.06,2.37,2.37h0c0,1.31-1.06,2.37-2.37,2.37h0c-1.31,0-2.37-1.06-2.37-2.37h0c0-1.31,1.06-2.37,2.37-2.37Z"/><path class="cls-7" d="m29.58,27.52h0c1.31,0,2.37,1.06,2.37,2.37h0c0,1.31-1.06,2.37-2.37,2.37h0c-1.31,0-2.37-1.06-2.37-2.37h0c0-1.31,1.06-2.37,2.37-2.37Z"/><path class="cls-7" d="m29.58,22.27h0c1.31,0,2.37,1.06,2.37,2.37h0c0,1.31-1.06,2.37-2.37,2.37h0c-1.31,0-2.37-1.06-2.37-2.37h0c0-1.31,1.06-2.37,2.37-2.37Z"/><path class="cls-7" d="m29.58,17.01h0c1.31,0,2.37,1.06,2.37,2.37h0c0,1.31-1.06,2.37-2.37,2.37h0c-1.31,0-2.37-1.06-2.37-2.37h0c0-1.31,1.06-2.37,2.37-2.37Z"/><path class="cls-7" d="m29.58,11.75h0c1.31,0,2.37,1.06,2.37,2.37h0c0,1.31-1.06,2.37-2.37,2.37h0c-1.31,0-2.37-1.06-2.37-2.37h0c0-1.31,1.06-2.37,2.37-2.37Z"/><path class="cls-7" d="m34.84,38.04h0c1.31,0,2.37,1.06,2.37,2.37h0c0,1.31-1.06,2.37-2.37,2.37h0c-1.31,0-2.37-1.06-2.37-2.37h0c0-1.31,1.06-2.37,2.37-2.37Z"/><path class="cls-7" d="m34.84,32.78h0c1.31,0,2.37,1.06,2.37,2.37h0c0,1.31-1.06,2.37-2.37,2.37h0c-1.31,0-2.37-1.06-2.37-2.37h0c0-1.31,1.06-2.37,2.37-2.37Z"/><path class="cls-7" d="m34.84,27.52h0c1.31,0,2.37,1.06,2.37,2.37h0c0,1.31-1.06,2.37-2.37,2.37h0c-1.31,0-2.37-1.06-2.37-2.37h0c0-1.31,1.06-2.37,2.37-2.37Z"/><path class="cls-7" d="m34.84,22.27h0c1.31,0,2.37,1.06,2.37,2.37h0c0,1.31-1.06,2.37-2.37,2.37h0c-1.31,0-2.37-1.06-2.37-2.37h0c0-1.31,1.06-2.37,2.37-2.37Z"/><path class="cls-7" d="m34.84,17.01h0c1.31,0,2.37,1.06,2.37,2.37h0c0,1.31-1.06,2.37-2.37,2.37h0c-1.31,0-2.37-1.06-2.37-2.37h0c0-1.31,1.06-2.37,2.37-2.37Z"/><path class="cls-7" d="m34.84,11.75h0c1.31,0,2.37,1.06,2.37,2.37h0c0,1.31-1.06,2.37-2.37,2.37h0c-1.31,0-2.37-1.06-2.37-2.37h0c0-1.31,1.06-2.37,2.37-2.37Z"/><path class="cls-7" d="m40.1,38.04h0c1.31,0,2.37,1.06,2.37,2.37h0c0,1.31-1.06,2.37-2.37,2.37h0c-1.31,0-2.37-1.06-2.37-2.37h0c0-1.31,1.06-2.37,2.37-2.37Z"/><path class="cls-7" d="m40.1,32.78h0c1.31,0,2.37,1.06,2.37,2.37h0c0,1.31-1.06,2.37-2.37,2.37h0c-1.31,0-2.37-1.06-2.37-2.37h0c0-1.31,1.06-2.37,2.37-2.37Z"/><path class="cls-7" d="m40.1,27.52h0c1.31,0,2.37,1.06,2.37,2.37h0c0,1.31-1.06,2.37-2.37,2.37h0c-1.31,0-2.37-1.06-2.37-2.37h0c0-1.31,1.06-2.37,2.37-2.37Z"/><path class="cls-7" d="m40.1,22.27h0c1.31,0,2.37,1.06,2.37,2.37h0c0,1.31-1.06,2.37-2.37,2.37h0c-1.31,0-2.37-1.06-2.37-2.37h0c0-1.31,1.06-2.37,2.37-2.37Z"/><path class="cls-7" d="m40.1,17.01h0c1.31,0,2.37,1.06,2.37,2.37h0c0,1.31-1.06,2.37-2.37,2.37h0c-1.31,0-2.37-1.06-2.37-2.37h0c0-1.31,1.06-2.37,2.37-2.37Z"/><path class="cls-7" d="m40.1,11.75h0c1.31,0,2.37,1.06,2.37,2.37h0c0,1.31-1.06,2.37-2.37,2.37h0c-1.31,0-2.37-1.06-2.37-2.37h0c0-1.31,1.06-2.37,2.37-2.37Z"/><path class="cls-7" d="m45.36,38.04h0c1.31,0,2.37,1.06,2.37,2.37h0c0,1.31-1.06,2.37-2.37,2.37h0c-1.31,0-2.37-1.06-2.37-2.37h0c0-1.31,1.06-2.37,2.37-2.37Z"/><path class="cls-7" d="m45.36,32.78h0c1.31,0,2.37,1.06,2.37,2.37h0c0,1.31-1.06,2.37-2.37,2.37h0c-1.31,0-2.37-1.06-2.37-2.37h0c0-1.31,1.06-2.37,2.37-2.37Z"/><path class="cls-7" d="m45.36,27.52h0c1.31,0,2.37,1.06,2.37,2.37h0c0,1.31-1.06,2.37-2.37,2.37h0c-1.31,0-2.37-1.06-2.37-2.37h0c0-1.31,1.06-2.37,2.37-2.37Z"/><path class="cls-7" d="m45.36,22.27h0c1.31,0,2.37,1.06,2.37,2.37h0c0,1.31-1.06,2.37-2.37,2.37h0c-1.31,0-2.37-1.06-2.37-2.37h0c0-1.31,1.06-2.37,2.37-2.37Z"/><path class="cls-7" d="m45.36,17.01h0c1.31,0,2.37,1.06,2.37,2.37h0c0,1.31-1.06,2.37-2.37,2.37h0c-1.31,0-2.37-1.06-2.37-2.37h0c0-1.31,1.06-2.37,2.37-2.37Z"/><path class="cls-7" d="m45.36,11.75h0c1.31,0,2.37,1.06,2.37,2.37h0c0,1.31-1.06,2.37-2.37,2.37h0c-1.31,0-2.37-1.06-2.37-2.37h0c0-1.31,1.06-2.37,2.37-2.37Z"/><path class="cls-7" d="m50.62,38.04h0c1.31,0,2.37,1.06,2.37,2.37h0c0,1.31-1.06,2.37-2.37,2.37h0c-1.31,0-2.37-1.06-2.37-2.37h0c0-1.31,1.06-2.37,2.37-2.37Z"/><path class="cls-7" d="m50.62,32.78h0c1.31,0,2.37,1.06,2.37,2.37h0c0,1.31-1.06,2.37-2.37,2.37h0c-1.31,0-2.37-1.06-2.37-2.37h0c0-1.31,1.06-2.37,2.37-2.37Z"/><path class="cls-7" d="m50.62,27.52h0c1.31,0,2.37,1.06,2.37,2.37h0c0,1.31-1.06,2.37-2.37,2.37h0c-1.31,0-2.37-1.06-2.37-2.37h0c0-1.31,1.06-2.37,2.37-2.37Z"/><path class="cls-7" d="m50.62,22.27h0c1.31,0,2.37,1.06,2.37,2.37h0c0,1.31-1.06,2.37-2.37,2.37h0c-1.31,0-2.37-1.06-2.37-2.37h0c0-1.31,1.06-2.37,2.37-2.37Z"/><path class="cls-7" d="m50.62,17.01h0c1.31,0,2.37,1.06,2.37,2.37h0c0,1.31-1.06,2.37-2.37,2.37h0c-1.31,0-2.37-1.06-2.37-2.37h0c0-1.31,1.06-2.37,2.37-2.37Z"/><path class="cls-7" d="m50.62,11.75h0c1.31,0,2.37,1.06,2.37,2.37h0c0,1.31-1.06,2.37-2.37,2.37h0c-1.31,0-2.37-1.06-2.37-2.37h0c0-1.31,1.06-2.37,2.37-2.37Z"/><path class="cls-7" d="m55.88,38.04h0c1.31,0,2.37,1.06,2.37,2.37h0c0,1.31-1.06,2.37-2.37,2.37h0c-1.31,0-2.37-1.06-2.37-2.37h0c0-1.31,1.06-2.37,2.37-2.37Z"/><path class="cls-7" d="m55.88,32.78h0c1.31,0,2.37,1.06,2.37,2.37h0c0,1.31-1.06,2.37-2.37,2.37h0c-1.31,0-2.37-1.06-2.37-2.37h0c0-1.31,1.06-2.37,2.37-2.37Z"/><path class="cls-7" d="m55.88,27.52h0c1.31,0,2.37,1.06,2.37,2.37h0c0,1.31-1.06,2.37-2.37,2.37h0c-1.31,0-2.37-1.06-2.37-2.37h0c0-1.31,1.06-2.37,2.37-2.37Z"/><path class="cls-7" d="m55.88,22.27h0c1.31,0,2.37,1.06,2.37,2.37h0c0,1.31-1.06,2.37-2.37,2.37h0c-1.31,0-2.37-1.06-2.37-2.37h0c0-1.31,1.06-2.37,2.37-2.37Z"/><path class="cls-7" d="m55.88,17.01h0c1.31,0,2.37,1.06,2.37,2.37h0c0,1.31-1.06,2.37-2.37,2.37h0c-1.31,0-2.37-1.06-2.37-2.37h0c0-1.31,1.06-2.37,2.37-2.37Z"/><path class="cls-7" d="m55.88,11.75h0c1.31,0,2.37,1.06,2.37,2.37h0c0,1.31-1.06,2.37-2.37,2.37h0c-1.31,0-2.37-1.06-2.37-2.37h0c0-1.31,1.06-2.37,2.37-2.37Z"/><path class="cls-7" d="m61.14,38.04h0c1.31,0,2.37,1.06,2.37,2.37h0c0,1.31-1.06,2.37-2.37,2.37h0c-1.31,0-2.37-1.06-2.37-2.37h0c0-1.31,1.06-2.37,2.37-2.37Z"/><path class="cls-7" d="m61.14,32.78h0c1.31,0,2.37,1.06,2.37,2.37h0c0,1.31-1.06,2.37-2.37,2.37h0c-1.31,0-2.37-1.06-2.37-2.37h0c0-1.31,1.06-2.37,2.37-2.37Z"/><path class="cls-7" d="m61.14,27.52h0c1.31,0,2.37,1.06,2.37,2.37h0c0,1.31-1.06,2.37-2.37,2.37h0c-1.31,0-2.37-1.06-2.37-2.37h0c0-1.31,1.06-2.37,2.37-2.37Z"/><path class="cls-7" d="m61.14,22.27h0c1.31,0,2.37,1.06,2.37,2.37h0c0,1.31-1.06,2.37-2.37,2.37h0c-1.31,0-2.37-1.06-2.37-2.37h0c0-1.31,1.06-2.37,2.37-2.37Z"/></g><g id="Estados_Unidos_Plata"><path class="cls-6" d="m61.14,17.01h0c1.31,0,2.37,1.06,2.37,2.37h0c0,1.31-1.06,2.37-2.37,2.37h0c-1.31,0-2.37-1.06-2.37-2.37h0c0-1.31,1.06-2.37,2.37-2.37Z"/><path class="cls-6" d="m61.14,11.75h0c1.31,0,2.37,1.06,2.37,2.37h0c0,1.31-1.06,2.37-2.37,2.37h0c-1.31,0-2.37-1.06-2.37-2.37h0c0-1.31,1.06-2.37,2.37-2.37Z"/><path class="cls-6" d="m66.4,38.04h0c1.31,0,2.37,1.06,2.37,2.37h0c0,1.31-1.06,2.37-2.37,2.37h0c-1.31,0-2.37-1.06-2.37-2.37h0c0-1.31,1.06-2.37,2.37-2.37Z"/><path class="cls-6" d="m66.4,32.78h0c1.31,0,2.37,1.06,2.37,2.37h0c0,1.31-1.06,2.37-2.37,2.37h0c-1.31,0-2.37-1.06-2.37-2.37h0c0-1.31,1.06-2.37,2.37-2.37Z"/><path class="cls-6" d="m66.4,27.52h0c1.31,0,2.37,1.06,2.37,2.37h0c0,1.31-1.06,2.37-2.37,2.37h0c-1.31,0-2.37-1.06-2.37-2.37h0c0-1.31,1.06-2.37,2.37-2.37Z"/><path class="cls-6" d="m66.4,22.27h0c1.31,0,2.37,1.06,2.37,2.37h0c0,1.31-1.06,2.37-2.37,2.37h0c-1.31,0-2.37-1.06-2.37-2.37h0c0-1.31,1.06-2.37,2.37-2.37Z"/><path class="cls-6" d="m66.4,17.01h0c1.31,0,2.37,1.06,2.37,2.37h0c0,1.31-1.06,2.37-2.37,2.37h0c-1.31,0-2.37-1.06-2.37-2.37h0c0-1.31,1.06-2.37,2.37-2.37Z"/><path class="cls-6" d="m66.4,11.75h0c1.31,0,2.37,1.06,2.37,2.37h0c0,1.31-1.06,2.37-2.37,2.37h0c-1.31,0-2.37-1.06-2.37-2.37h0c0-1.31,1.06-2.37,2.37-2.37Z"/><path class="cls-6" d="m71.65,38.04h0c1.31,0,2.37,1.06,2.37,2.37h0c0,1.31-1.06,2.37-2.37,2.37h0c-1.31,0-2.37-1.06-2.37-2.37h0c0-1.31,1.06-2.37,2.37-2.37Z"/><path class="cls-6" d="m71.65,32.78h0c1.31,0,2.37,1.06,2.37,2.37h0c0,1.31-1.06,2.37-2.37,2.37h0c-1.31,0-2.37-1.06-2.37-2.37h0c0-1.31,1.06-2.37,2.37-2.37Z"/><path class="cls-6" d="m71.65,27.52h0c1.31,0,2.37,1.06,2.37,2.37h0c0,1.31-1.06,2.37-2.37,2.37h0c-1.31,0-2.37-1.06-2.37-2.37h0c0-1.31,1.06-2.37,2.37-2.37Z"/><path class="cls-6" d="m71.65,22.27h0c1.31,0,2.37,1.06,2.37,2.37h0c0,1.31-1.06,2.37-2.37,2.37h0c-1.31,0-2.37-1.06-2.37-2.37h0c0-1.31,1.06-2.37,2.37-2.37Z"/><path class="cls-6" d="m71.65,17.01h0c1.31,0,2.37,1.06,2.37,2.37h0c0,1.31-1.06,2.37-2.37,2.37h0c-1.31,0-2.37-1.06-2.37-2.37h0c0-1.31,1.06-2.37,2.37-2.37Z"/><path class="cls-6" d="m71.65,11.75h0c1.31,0,2.37,1.06,2.37,2.37h0c0,1.31-1.06,2.37-2.37,2.37h0c-1.31,0-2.37-1.06-2.37-2.37h0c0-1.31,1.06-2.37,2.37-2.37Z"/><path class="cls-6" d="m76.91,38.04h0c1.31,0,2.37,1.06,2.37,2.37h0c0,1.31-1.06,2.37-2.37,2.37h0c-1.31,0-2.37-1.06-2.37-2.37h0c0-1.31,1.06-2.37,2.37-2.37Z"/><path class="cls-6" d="m76.91,32.78h0c1.31,0,2.37,1.06,2.37,2.37h0c0,1.31-1.06,2.37-2.37,2.37h0c-1.31,0-2.37-1.06-2.37-2.37h0c0-1.31,1.06-2.37,2.37-2.37Z"/><path class="cls-6" d="m76.91,27.52h0c1.31,0,2.37,1.06,2.37,2.37h0c0,1.31-1.06,2.37-2.37,2.37h0c-1.31,0-2.37-1.06-2.37-2.37h0c0-1.31,1.06-2.37,2.37-2.37Z"/><path class="cls-6" d="m76.91,22.27h0c1.31,0,2.37,1.06,2.37,2.37h0c0,1.31-1.06,2.37-2.37,2.37h0c-1.31,0-2.37-1.06-2.37-2.37h0c0-1.31,1.06-2.37,2.37-2.37Z"/><path class="cls-6" d="m76.91,17.01h0c1.31,0,2.37,1.06,2.37,2.37h0c0,1.31-1.06,2.37-2.37,2.37h0c-1.31,0-2.37-1.06-2.37-2.37h0c0-1.31,1.06-2.37,2.37-2.37Z"/><path class="cls-6" d="m76.91,11.75h0c1.31,0,2.37,1.06,2.37,2.37h0c0,1.31-1.06,2.37-2.37,2.37h0c-1.31,0-2.37-1.06-2.37-2.37h0c0-1.31,1.06-2.37,2.37-2.37Z"/><path class="cls-6" d="m82.17,38.04h0c1.31,0,2.37,1.06,2.37,2.37h0c0,1.31-1.06,2.37-2.37,2.37h0c-1.31,0-2.37-1.06-2.37-2.37h0c0-1.31,1.06-2.37,2.37-2.37Z"/><path class="cls-6" d="m82.17,32.78h0c1.31,0,2.37,1.06,2.37,2.37h0c0,1.31-1.06,2.37-2.37,2.37h0c-1.31,0-2.37-1.06-2.37-2.37h0c0-1.31,1.06-2.37,2.37-2.37Z"/><path class="cls-6" d="m82.17,27.52h0c1.31,0,2.37,1.06,2.37,2.37h0c0,1.31-1.06,2.37-2.37,2.37h0c-1.31,0-2.37-1.06-2.37-2.37h0c0-1.31,1.06-2.37,2.37-2.37Z"/><path class="cls-6" d="m82.17,22.27h0c1.31,0,2.37,1.06,2.37,2.37h0c0,1.31-1.06,2.37-2.37,2.37h0c-1.31,0-2.37-1.06-2.37-2.37h0c0-1.31,1.06-2.37,2.37-2.37Z"/><path class="cls-6" d="m82.17,17.01h0c1.31,0,2.37,1.06,2.37,2.37h0c0,1.31-1.06,2.37-2.37,2.37h0c-1.31,0-2.37-1.06-2.37-2.37h0c0-1.31,1.06-2.37,2.37-2.37Z"/><path class="cls-6" d="m82.17,11.75h0c1.31,0,2.37,1.06,2.37,2.37h0c0,1.31-1.06,2.37-2.37,2.37h0c-1.31,0-2.37-1.06-2.37-2.37h0c0-1.31,1.06-2.37,2.37-2.37Z"/><path class="cls-6" d="m87.43,38.04h0c1.31,0,2.37,1.06,2.37,2.37h0c0,1.31-1.06,2.37-2.37,2.37h0c-1.31,0-2.37-1.06-2.37-2.37h0c0-1.31,1.06-2.37,2.37-2.37Z"/><path class="cls-6" d="m87.43,32.78h0c1.31,0,2.37,1.06,2.37,2.37h0c0,1.31-1.06,2.37-2.37,2.37h0c-1.31,0-2.37-1.06-2.37-2.37h0c0-1.31,1.06-2.37,2.37-2.37Z"/><path class="cls-6" d="m87.43,27.52h0c1.31,0,2.37,1.06,2.37,2.37h0c0,1.31-1.06,2.37-2.37,2.37h0c-1.31,0-2.37-1.06-2.37-2.37h0c0-1.31,1.06-2.37,2.37-2.37Z"/><path class="cls-6" d="m87.43,22.27h0c1.31,0,2.37,1.06,2.37,2.37h0c0,1.31-1.06,2.37-2.37,2.37h0c-1.31,0-2.37-1.06-2.37-2.37h0c0-1.31,1.06-2.37,2.37-2.37Z"/><path class="cls-6" d="m87.43,17.01h0c1.31,0,2.37,1.06,2.37,2.37h0c0,1.31-1.06,2.37-2.37,2.37h0c-1.31,0-2.37-1.06-2.37-2.37h0c0-1.31,1.06-2.37,2.37-2.37Z"/><path class="cls-6" d="m87.43,11.75h0c1.31,0,2.37,1.06,2.37,2.37h0c0,1.31-1.06,2.37-2.37,2.37h0c-1.31,0-2.37-1.06-2.37-2.37h0c0-1.31,1.06-2.37,2.37-2.37Z"/><path class="cls-6" d="m92.69,38.04h0c1.31,0,2.37,1.06,2.37,2.37h0c0,1.31-1.06,2.37-2.37,2.37h0c-1.31,0-2.37-1.06-2.37-2.37h0c0-1.31,1.06-2.37,2.37-2.37Z"/><path class="cls-6" d="m92.69,32.78h0c1.31,0,2.37,1.06,2.37,2.37h0c0,1.31-1.06,2.37-2.37,2.37h0c-1.31,0-2.37-1.06-2.37-2.37h0c0-1.31,1.06-2.37,2.37-2.37Z"/><path class="cls-6" d="m92.69,27.52h0c1.31,0,2.37,1.06,2.37,2.37h0c0,1.31-1.06,2.37-2.37,2.37h0c-1.31,0-2.37-1.06-2.37-2.37h0c0-1.31,1.06-2.37,2.37-2.37Z"/><path class="cls-6" d="m92.69,22.27h0c1.31,0,2.37,1.06,2.37,2.37h0c0,1.31-1.06,2.37-2.37,2.37h0c-1.31,0-2.37-1.06-2.37-2.37h0c0-1.31,1.06-2.37,2.37-2.37Z"/><path class="cls-6" d="m92.69,17.01h0c1.31,0,2.37,1.06,2.37,2.37h0c0,1.31-1.06,2.37-2.37,2.37h0c-1.31,0-2.37-1.06-2.37-2.37h0c0-1.31,1.06-2.37,2.37-2.37Z"/><path class="cls-6" d="m92.69,11.75h0c1.31,0,2.37,1.06,2.37,2.37h0c0,1.31-1.06,2.37-2.37,2.37h0c-1.31,0-2.37-1.06-2.37-2.37h0c0-1.31,1.06-2.37,2.37-2.37Z"/><path class="cls-6" d="m97.95,38.04h0c1.31,0,2.37,1.06,2.37,2.37h0c0,1.31-1.06,2.37-2.37,2.37h0c-1.31,0-2.37-1.06-2.37-2.37h0c0-1.31,1.06-2.37,2.37-2.37Z"/><path class="cls-6" d="m97.95,32.78h0c1.31,0,2.37,1.06,2.37,2.37h0c0,1.31-1.06,2.37-2.37,2.37h0c-1.31,0-2.37-1.06-2.37-2.37h0c0-1.31,1.06-2.37,2.37-2.37Z"/><path class="cls-6" d="m97.95,27.52h0c1.31,0,2.37,1.06,2.37,2.37h0c0,1.31-1.06,2.37-2.37,2.37h0c-1.31,0-2.37-1.06-2.37-2.37h0c0-1.31,1.06-2.37,2.37-2.37Z"/><path class="cls-6" d="m97.95,22.27h0c1.31,0,2.37,1.06,2.37,2.37h0c0,1.31-1.06,2.37-2.37,2.37h0c-1.31,0-2.37-1.06-2.37-2.37h0c0-1.31,1.06-2.37,2.37-2.37Z"/></g><g id="Estados_Unidos_Bronce"><path class="cls-5" d="m97.95,17.01h0c1.31,0,2.37,1.06,2.37,2.37h0c0,1.31-1.06,2.37-2.37,2.37h0c-1.31,0-2.37-1.06-2.37-2.37h0c0-1.31,1.06-2.37,2.37-2.37Z"/><path class="cls-5" d="m97.95,11.75h0c1.31,0,2.37,1.06,2.37,2.37h0c0,1.31-1.06,2.37-2.37,2.37h0c-1.31,0-2.37-1.06-2.37-2.37h0c0-1.31,1.06-2.37,2.37-2.37Z"/><path class="cls-5" d="m103.21,38.04h0c1.31,0,2.37,1.06,2.37,2.37h0c0,1.31-1.06,2.37-2.37,2.37h0c-1.31,0-2.37-1.06-2.37-2.37h0c0-1.31,1.06-2.37,2.37-2.37Z"/><path class="cls-5" d="m103.21,32.78h0c1.31,0,2.37,1.06,2.37,2.37h0c0,1.31-1.06,2.37-2.37,2.37h0c-1.31,0-2.37-1.06-2.37-2.37h0c0-1.31,1.06-2.37,2.37-2.37Z"/><path class="cls-5" d="m103.21,27.52h0c1.31,0,2.37,1.06,2.37,2.37h0c0,1.31-1.06,2.37-2.37,2.37h0c-1.31,0-2.37-1.06-2.37-2.37h0c0-1.31,1.06-2.37,2.37-2.37Z"/><path class="cls-5" d="m103.21,22.27h0c1.31,0,2.37,1.06,2.37,2.37h0c0,1.31-1.06,2.37-2.37,2.37h0c-1.31,0-2.37-1.06-2.37-2.37h0c0-1.31,1.06-2.37,2.37-2.37Z"/><path class="cls-5" d="m103.21,17.01h0c1.31,0,2.37,1.06,2.37,2.37h0c0,1.31-1.06,2.37-2.37,2.37h0c-1.31,0-2.37-1.06-2.37-2.37h0c0-1.31,1.06-2.37,2.37-2.37Z"/><path class="cls-5" d="m103.21,11.75h0c1.31,0,2.37,1.06,2.37,2.37h0c0,1.31-1.06,2.37-2.37,2.37h0c-1.31,0-2.37-1.06-2.37-2.37h0c0-1.31,1.06-2.37,2.37-2.37Z"/><path class="cls-5" d="m108.47,38.04h0c1.31,0,2.37,1.06,2.37,2.37h0c0,1.31-1.06,2.37-2.37,2.37h0c-1.31,0-2.37-1.06-2.37-2.37h0c0-1.31,1.06-2.37,2.37-2.37Z"/><path class="cls-5" d="m108.47,32.78h0c1.31,0,2.37,1.06,2.37,2.37h0c0,1.31-1.06,2.37-2.37,2.37h0c-1.31,0-2.37-1.06-2.37-2.37h0c0-1.31,1.06-2.37,2.37-2.37Z"/><path class="cls-5" d="m108.47,27.52h0c1.31,0,2.37,1.06,2.37,2.37h0c0,1.31-1.06,2.37-2.37,2.37h0c-1.31,0-2.37-1.06-2.37-2.37h0c0-1.31,1.06-2.37,2.37-2.37Z"/><path class="cls-5" d="m108.47,22.27h0c1.31,0,2.37,1.06,2.37,2.37h0c0,1.31-1.06,2.37-2.37,2.37h0c-1.31,0-2.37-1.06-2.37-2.37h0c0-1.31,1.06-2.37,2.37-2.37Z"/><path class="cls-5" d="m108.47,17.01h0c1.31,0,2.37,1.06,2.37,2.37h0c0,1.31-1.06,2.37-2.37,2.37h0c-1.31,0-2.37-1.06-2.37-2.37h0c0-1.31,1.06-2.37,2.37-2.37Z"/><path class="cls-5" d="m108.47,11.75h0c1.31,0,2.37,1.06,2.37,2.37h0c0,1.31-1.06,2.37-2.37,2.37h0c-1.31,0-2.37-1.06-2.37-2.37h0c0-1.31,1.06-2.37,2.37-2.37Z"/><path class="cls-5" d="m113.73,38.04h0c1.31,0,2.37,1.06,2.37,2.37h0c0,1.31-1.06,2.37-2.37,2.37h0c-1.31,0-2.37-1.06-2.37-2.37h0c0-1.31,1.06-2.37,2.37-2.37Z"/><path class="cls-5" d="m113.73,32.78h0c1.31,0,2.37,1.06,2.37,2.37h0c0,1.31-1.06,2.37-2.37,2.37h0c-1.31,0-2.37-1.06-2.37-2.37h0c0-1.31,1.06-2.37,2.37-2.37Z"/><path class="cls-5" d="m113.73,27.52h0c1.31,0,2.37,1.06,2.37,2.37h0c0,1.31-1.06,2.37-2.37,2.37h0c-1.31,0-2.37-1.06-2.37-2.37h0c0-1.31,1.06-2.37,2.37-2.37Z"/><path class="cls-5" d="m113.73,22.27h0c1.31,0,2.37,1.06,2.37,2.37h0c0,1.31-1.06,2.37-2.37,2.37h0c-1.31,0-2.37-1.06-2.37-2.37h0c0-1.31,1.06-2.37,2.37-2.37Z"/><path class="cls-5" d="m113.73,17.01h0c1.31,0,2.37,1.06,2.37,2.37h0c0,1.31-1.06,2.37-2.37,2.37h0c-1.31,0-2.37-1.06-2.37-2.37h0c0-1.31,1.06-2.37,2.37-2.37Z"/><path class="cls-5" d="m113.73,11.75h0c1.31,0,2.37,1.06,2.37,2.37h0c0,1.31-1.06,2.37-2.37,2.37h0c-1.31,0-2.37-1.06-2.37-2.37h0c0-1.31,1.06-2.37,2.37-2.37Z"/><path class="cls-5" d="m118.99,38.04h0c1.31,0,2.37,1.06,2.37,2.37h0c0,1.31-1.06,2.37-2.37,2.37h0c-1.31,0-2.37-1.06-2.37-2.37h0c0-1.31,1.06-2.37,2.37-2.37Z"/><path class="cls-5" d="m118.99,32.78h0c1.31,0,2.37,1.06,2.37,2.37h0c0,1.31-1.06,2.37-2.37,2.37h0c-1.31,0-2.37-1.06-2.37-2.37h0c0-1.31,1.06-2.37,2.37-2.37Z"/><path class="cls-5" d="m118.99,27.52h0c1.31,0,2.37,1.06,2.37,2.37h0c0,1.31-1.06,2.37-2.37,2.37h0c-1.31,0-2.37-1.06-2.37-2.37h0c0-1.31,1.06-2.37,2.37-2.37Z"/><path class="cls-5" d="m118.99,22.27h0c1.31,0,2.37,1.06,2.37,2.37h0c0,1.31-1.06,2.37-2.37,2.37h0c-1.31,0-2.37-1.06-2.37-2.37h0c0-1.31,1.06-2.37,2.37-2.37Z"/><path class="cls-5" d="m118.99,17.01h0c1.31,0,2.37,1.06,2.37,2.37h0c0,1.31-1.06,2.37-2.37,2.37h0c-1.31,0-2.37-1.06-2.37-2.37h0c0-1.31,1.06-2.37,2.37-2.37Z"/><path class="cls-5" d="m118.99,11.75h0c1.31,0,2.37,1.06,2.37,2.37h0c0,1.31-1.06,2.37-2.37,2.37h0c-1.31,0-2.37-1.06-2.37-2.37h0c0-1.31,1.06-2.37,2.37-2.37Z"/><path class="cls-5" d="m124.24,38.04h0c1.31,0,2.37,1.06,2.37,2.37h0c0,1.31-1.06,2.37-2.37,2.37h0c-1.31,0-2.37-1.06-2.37-2.37h0c0-1.31,1.06-2.37,2.37-2.37Z"/><path class="cls-5" d="m124.24,32.78h0c1.31,0,2.37,1.06,2.37,2.37h0c0,1.31-1.06,2.37-2.37,2.37h0c-1.31,0-2.37-1.06-2.37-2.37h0c0-1.31,1.06-2.37,2.37-2.37Z"/><path class="cls-5" d="m124.24,27.52h0c1.31,0,2.37,1.06,2.37,2.37h0c0,1.31-1.06,2.37-2.37,2.37h0c-1.31,0-2.37-1.06-2.37-2.37h0c0-1.31,1.06-2.37,2.37-2.37Z"/><path class="cls-5" d="m124.24,22.27h0c1.31,0,2.37,1.06,2.37,2.37h0c0,1.31-1.06,2.37-2.37,2.37h0c-1.31,0-2.37-1.06-2.37-2.37h0c0-1.31,1.06-2.37,2.37-2.37Z"/><path class="cls-5" d="m124.24,17.01h0c1.31,0,2.37,1.06,2.37,2.37h0c0,1.31-1.06,2.37-2.37,2.37h0c-1.31,0-2.37-1.06-2.37-2.37h0c0-1.31,1.06-2.37,2.37-2.37Z"/><path class="cls-5" d="m124.24,11.75h0c1.31,0,2.37,1.06,2.37,2.37h0c0,1.31-1.06,2.37-2.37,2.37h0c-1.31,0-2.37-1.06-2.37-2.37h0c0-1.31,1.06-2.37,2.37-2.37Z"/><path class="cls-5" d="m129.5,38.04h0c1.31,0,2.37,1.06,2.37,2.37h0c0,1.31-1.06,2.37-2.37,2.37h0c-1.31,0-2.37-1.06-2.37-2.37h0c0-1.31,1.06-2.37,2.37-2.37Z"/><path class="cls-5" d="m129.5,32.78h0c1.31,0,2.37,1.06,2.37,2.37h0c0,1.31-1.06,2.37-2.37,2.37h0c-1.31,0-2.37-1.06-2.37-2.37h0c0-1.31,1.06-2.37,2.37-2.37Z"/><path class="cls-5" d="m129.5,27.52h0c1.31,0,2.37,1.06,2.37,2.37h0c0,1.31-1.06,2.37-2.37,2.37h0c-1.31,0-2.37-1.06-2.37-2.37h0c0-1.31,1.06-2.37,2.37-2.37Z"/><path class="cls-5" d="m129.5,22.27h0c1.31,0,2.37,1.06,2.37,2.37h0c0,1.31-1.06,2.37-2.37,2.37h0c-1.31,0-2.37-1.06-2.37-2.37h0c0-1.31,1.06-2.37,2.37-2.37Z"/></g></g></g><g id="diagram-2"><g id="leftbench-2"><g id="Estados_Unidos_Oro-2"><path class="cls-7" d="m30.22,93.37h0c1.31,0,2.37,1.06,2.37,2.37h0c0,1.31-1.06,2.37-2.37,2.37h0c-1.31,0-2.37-1.06-2.37-2.37h0c0-1.31,1.06-2.37,2.37-2.37Z"/><path class="cls-7" d="m30.22,88.11h0c1.31,0,2.37,1.06,2.37,2.37h0c0,1.31-1.06,2.37-2.37,2.37h0c-1.31,0-2.37-1.06-2.37-2.37h0c0-1.31,1.06-2.37,2.37-2.37Z"/><path class="cls-7" d="m30.22,82.85h0c1.31,0,2.37,1.06,2.37,2.37h0c0,1.31-1.06,2.37-2.37,2.37h0c-1.31,0-2.37-1.06-2.37-2.37h0c0-1.31,1.06-2.37,2.37-2.37Z"/><path class="cls-7" d="m30.22,77.59h0c1.31,0,2.37,1.06,2.37,2.37h0c0,1.31-1.06,2.37-2.37,2.37h0c-1.31,0-2.37-1.06-2.37-2.37h0c0-1.31,1.06-2.37,2.37-2.37Z"/><path class="cls-7" d="m30.22,72.33h0c1.31,0,2.37,1.06,2.37,2.37h0c0,1.31-1.06,2.37-2.37,2.37h0c-1.31,0-2.37-1.06-2.37-2.37h0c0-1.31,1.06-2.37,2.37-2.37Z"/><path class="cls-7" d="m30.22,67.07h0c1.31,0,2.37,1.06,2.37,2.37h0c0,1.31-1.06,2.37-2.37,2.37h0c-1.31,0-2.37-1.06-2.37-2.37h0c0-1.31,1.06-2.37,2.37-2.37Z"/><path class="cls-7" d="m35.48,93.37h0c1.31,0,2.37,1.06,2.37,2.37h0c0,1.31-1.06,2.37-2.37,2.37h0c-1.31,0-2.37-1.06-2.37-2.37h0c0-1.31,1.06-2.37,2.37-2.37Z"/><path class="cls-7" d="m35.48,88.11h0c1.31,0,2.37,1.06,2.37,2.37h0c0,1.31-1.06,2.37-2.37,2.37h0c-1.31,0-2.37-1.06-2.37-2.37h0c0-1.31,1.06-2.37,2.37-2.37Z"/><path class="cls-7" d="m35.48,82.85h0c1.31,0,2.37,1.06,2.37,2.37h0c0,1.31-1.06,2.37-2.37,2.37h0c-1.31,0-2.37-1.06-2.37-2.37h0c0-1.31,1.06-2.37,2.37-2.37Z"/><path class="cls-7" d="m35.48,77.59h0c1.31,0,2.37,1.06,2.37,2.37h0c0,1.31-1.06,2.37-2.37,2.37h0c-1.31,0-2.37-1.06-2.37-2.37h0c0-1.31,1.06-2.37,2.37-2.37Z"/><path class="cls-7" d="m35.48,72.33h0c1.31,0,2.37,1.06,2.37,2.37h0c0,1.31-1.06,2.37-2.37,2.37h0c-1.31,0-2.37-1.06-2.37-2.37h0c0-1.31,1.06-2.37,2.37-2.37Z"/><path class="cls-7" d="m35.48,67.07h0c1.31,0,2.37,1.06,2.37,2.37h0c0,1.31-1.06,2.37-2.37,2.37h0c-1.31,0-2.37-1.06-2.37-2.37h0c0-1.31,1.06-2.37,2.37-2.37Z"/><path class="cls-7" d="m40.74,93.37h0c1.31,0,2.37,1.06,2.37,2.37h0c0,1.31-1.06,2.37-2.37,2.37h0c-1.31,0-2.37-1.06-2.37-2.37h0c0-1.31,1.06-2.37,2.37-2.37Z"/><path class="cls-7" d="m40.74,88.11h0c1.31,0,2.37,1.06,2.37,2.37h0c0,1.31-1.06,2.37-2.37,2.37h0c-1.31,0-2.37-1.06-2.37-2.37h0c0-1.31,1.06-2.37,2.37-2.37Z"/><path class="cls-7" d="m40.74,82.85h0c1.31,0,2.37,1.06,2.37,2.37h0c0,1.31-1.06,2.37-2.37,2.37h0c-1.31,0-2.37-1.06-2.37-2.37h0c0-1.31,1.06-2.37,2.37-2.37Z"/><path class="cls-7" d="m40.74,77.59h0c1.31,0,2.37,1.06,2.37,2.37h0c0,1.31-1.06,2.37-2.37,2.37h0c-1.31,0-2.37-1.06-2.37-2.37h0c0-1.31,1.06-2.37,2.37-2.37Z"/><path class="cls-7" d="m40.74,72.33h0c1.31,0,2.37,1.06,2.37,2.37h0c0,1.31-1.06,2.37-2.37,2.37h0c-1.31,0-2.37-1.06-2.37-2.37h0c0-1.31,1.06-2.37,2.37-2.37Z"/><path class="cls-7" d="m40.74,67.07h0c1.31,0,2.37,1.06,2.37,2.37h0c0,1.31-1.06,2.37-2.37,2.37h0c-1.31,0-2.37-1.06-2.37-2.37h0c0-1.31,1.06-2.37,2.37-2.37Z"/><path class="cls-7" d="m46,93.37h0c1.31,0,2.37,1.06,2.37,2.37h0c0,1.31-1.06,2.37-2.37,2.37h0c-1.31,0-2.37-1.06-2.37-2.37h0c0-1.31,1.06-2.37,2.37-2.37Z"/><path class="cls-7" d="m46,88.11h0c1.31,0,2.37,1.06,2.37,2.37h0c0,1.31-1.06,2.37-2.37,2.37h0c-1.31,0-2.37-1.06-2.37-2.37h0c0-1.31,1.06-2.37,2.37-2.37Z"/><path class="cls-7" d="m46,82.85h0c1.31,0,2.37,1.06,2.37,2.37h0c0,1.31-1.06,2.37-2.37,2.37h0c-1.31,0-2.37-1.06-2.37-2.37h0c0-1.31,1.06-2.37,2.37-2.37Z"/><path class="cls-7" d="m46,77.59h0c1.31,0,2.37,1.06,2.37,2.37h0c0,1.31-1.06,2.37-2.37,2.37h0c-1.31,0-2.37-1.06-2.37-2.37h0c0-1.31,1.06-2.37,2.37-2.37Z"/><path class="cls-7" d="m46,72.33h0c1.31,0,2.37,1.06,2.37,2.37h0c0,1.31-1.06,2.37-2.37,2.37h0c-1.31,0-2.37-1.06-2.37-2.37h0c0-1.31,1.06-2.37,2.37-2.37Z"/><path class="cls-7" d="m46,67.07h0c1.31,0,2.37,1.06,2.37,2.37h0c0,1.31-1.06,2.37-2.37,2.37h0c-1.31,0-2.37-1.06-2.37-2.37h0c0-1.31,1.06-2.37,2.37-2.37Z"/><path class="cls-7" d="m51.26,93.37h0c1.31,0,2.37,1.06,2.37,2.37h0c0,1.31-1.06,2.37-2.37,2.37h0c-1.31,0-2.37-1.06-2.37-2.37h0c0-1.31,1.06-2.37,2.37-2.37Z"/><path class="cls-7" d="m51.26,88.11h0c1.31,0,2.37,1.06,2.37,2.37h0c0,1.31-1.06,2.37-2.37,2.37h0c-1.31,0-2.37-1.06-2.37-2.37h0c0-1.31,1.06-2.37,2.37-2.37Z"/><path class="cls-7" d="m51.26,82.85h0c1.31,0,2.37,1.06,2.37,2.37h0c0,1.31-1.06,2.37-2.37,2.37h0c-1.31,0-2.37-1.06-2.37-2.37h0c0-1.31,1.06-2.37,2.37-2.37Z"/><path class="cls-7" d="m51.26,77.59h0c1.31,0,2.37,1.06,2.37,2.37h0c0,1.31-1.06,2.37-2.37,2.37h0c-1.31,0-2.37-1.06-2.37-2.37h0c0-1.31,1.06-2.37,2.37-2.37Z"/><path class="cls-7" d="m51.26,72.33h0c1.31,0,2.37,1.06,2.37,2.37h0c0,1.31-1.06,2.37-2.37,2.37h0c-1.31,0-2.37-1.06-2.37-2.37h0c0-1.31,1.06-2.37,2.37-2.37Z"/><path class="cls-7" d="m51.26,67.07h0c1.31,0,2.37,1.06,2.37,2.37h0c0,1.31-1.06,2.37-2.37,2.37h0c-1.31,0-2.37-1.06-2.37-2.37h0c0-1.31,1.06-2.37,2.37-2.37Z"/></g><g id="Estados_Unidos_Plata-2"><path class="cls-6" d="m56.51,93.37h0c1.31,0,2.37,1.06,2.37,2.37h0c0,1.31-1.06,2.37-2.37,2.37h0c-1.31,0-2.37-1.06-2.37-2.37h0c0-1.31,1.06-2.37,2.37-2.37Z"/><path class="cls-6" d="m56.51,88.11h0c1.31,0,2.37,1.06,2.37,2.37h0c0,1.31-1.06,2.37-2.37,2.37h0c-1.31,0-2.37-1.06-2.37-2.37h0c0-1.31,1.06-2.37,2.37-2.37Z"/><path class="cls-6" d="m56.51,82.85h0c1.31,0,2.37,1.06,2.37,2.37h0c0,1.31-1.06,2.37-2.37,2.37h0c-1.31,0-2.37-1.06-2.37-2.37h0c0-1.31,1.06-2.37,2.37-2.37Z"/><path class="cls-6" d="m56.51,77.59h0c1.31,0,2.37,1.06,2.37,2.37h0c0,1.31-1.06,2.37-2.37,2.37h0c-1.31,0-2.37-1.06-2.37-2.37h0c0-1.31,1.06-2.37,2.37-2.37Z"/><path class="cls-6" d="m56.51,72.33h0c1.31,0,2.37,1.06,2.37,2.37h0c0,1.31-1.06,2.37-2.37,2.37h0c-1.31,0-2.37-1.06-2.37-2.37h0c0-1.31,1.06-2.37,2.37-2.37Z"/><path class="cls-6" d="m56.51,67.07h0c1.31,0,2.37,1.06,2.37,2.37h0c0,1.31-1.06,2.37-2.37,2.37h0c-1.31,0-2.37-1.06-2.37-2.37h0c0-1.31,1.06-2.37,2.37-2.37Z"/><path class="cls-6" d="m61.77,93.37h0c1.31,0,2.37,1.06,2.37,2.37h0c0,1.31-1.06,2.37-2.37,2.37h0c-1.31,0-2.37-1.06-2.37-2.37h0c0-1.31,1.06-2.37,2.37-2.37Z"/><path class="cls-6" d="m61.77,88.11h0c1.31,0,2.37,1.06,2.37,2.37h0c0,1.31-1.06,2.37-2.37,2.37h0c-1.31,0-2.37-1.06-2.37-2.37h0c0-1.31,1.06-2.37,2.37-2.37Z"/><path class="cls-6" d="m61.77,82.85h0c1.31,0,2.37,1.06,2.37,2.37h0c0,1.31-1.06,2.37-2.37,2.37h0c-1.31,0-2.37-1.06-2.37-2.37h0c0-1.31,1.06-2.37,2.37-2.37Z"/><path class="cls-6" d="m61.77,77.59h0c1.31,0,2.37,1.06,2.37,2.37h0c0,1.31-1.06,2.37-2.37,2.37h0c-1.31,0-2.37-1.06-2.37-2.37h0c0-1.31,1.06-2.37,2.37-2.37Z"/><path class="cls-6" d="m61.77,72.33h0c1.31,0,2.37,1.06,2.37,2.37h0c0,1.31-1.06,2.37-2.37,2.37h0c-1.31,0-2.37-1.06-2.37-2.37h0c0-1.31,1.06-2.37,2.37-2.37Z"/><path class="cls-6" d="m61.77,67.07h0c1.31,0,2.37,1.06,2.37,2.37h0c0,1.31-1.06,2.37-2.37,2.37h0c-1.31,0-2.37-1.06-2.37-2.37h0c0-1.31,1.06-2.37,2.37-2.37Z"/><path class="cls-6" d="m67.03,93.37h0c1.31,0,2.37,1.06,2.37,2.37h0c0,1.31-1.06,2.37-2.37,2.37h0c-1.31,0-2.37-1.06-2.37-2.37h0c0-1.31,1.06-2.37,2.37-2.37Z"/><path class="cls-6" d="m67.03,88.11h0c1.31,0,2.37,1.06,2.37,2.37h0c0,1.31-1.06,2.37-2.37,2.37h0c-1.31,0-2.37-1.06-2.37-2.37h0c0-1.31,1.06-2.37,2.37-2.37Z"/><path class="cls-6" d="m67.03,82.85h0c1.31,0,2.37,1.06,2.37,2.37h0c0,1.31-1.06,2.37-2.37,2.37h0c-1.31,0-2.37-1.06-2.37-2.37h0c0-1.31,1.06-2.37,2.37-2.37Z"/><path class="cls-6" d="m67.03,77.59h0c1.31,0,2.37,1.06,2.37,2.37h0c0,1.31-1.06,2.37-2.37,2.37h0c-1.31,0-2.37-1.06-2.37-2.37h0c0-1.31,1.06-2.37,2.37-2.37Z"/><path class="cls-6" d="m67.03,72.33h0c1.31,0,2.37,1.06,2.37,2.37h0c0,1.31-1.06,2.37-2.37,2.37h0c-1.31,0-2.37-1.06-2.37-2.37h0c0-1.31,1.06-2.37,2.37-2.37Z"/><path class="cls-6" d="m67.03,67.07h0c1.31,0,2.37,1.06,2.37,2.37h0c0,1.31-1.06,2.37-2.37,2.37h0c-1.31,0-2.37-1.06-2.37-2.37h0c0-1.31,1.06-2.37,2.37-2.37Z"/><path class="cls-6" d="m72.29,93.37h0c1.31,0,2.37,1.06,2.37,2.37h0c0,1.31-1.06,2.37-2.37,2.37h0c-1.31,0-2.37-1.06-2.37-2.37h0c0-1.31,1.06-2.37,2.37-2.37Z"/><path class="cls-6" d="m72.29,88.11h0c1.31,0,2.37,1.06,2.37,2.37h0c0,1.31-1.06,2.37-2.37,2.37h0c-1.31,0-2.37-1.06-2.37-2.37h0c0-1.31,1.06-2.37,2.37-2.37Z"/><path class="cls-6" d="m72.29,82.85h0c1.31,0,2.37,1.06,2.37,2.37h0c0,1.31-1.06,2.37-2.37,2.37h0c-1.31,0-2.37-1.06-2.37-2.37h0c0-1.31,1.06-2.37,2.37-2.37Z"/><path class="cls-6" d="m72.29,77.59h0c1.31,0,2.37,1.06,2.37,2.37h0c0,1.31-1.06,2.37-2.37,2.37h0c-1.31,0-2.37-1.06-2.37-2.37h0c0-1.31,1.06-2.37,2.37-2.37Z"/><path class="cls-6" d="m72.29,72.33h0c1.31,0,2.37,1.06,2.37,2.37h0c0,1.31-1.06,2.37-2.37,2.37h0c-1.31,0-2.37-1.06-2.37-2.37h0c0-1.31,1.06-2.37,2.37-2.37Z"/></g><g id="Estados_Unidos_Bronce-2"><path class="cls-5" d="m72.29,67.07h0c1.31,0,2.37,1.06,2.37,2.37h0c0,1.31-1.06,2.37-2.37,2.37h0c-1.31,0-2.37-1.06-2.37-2.37h0c0-1.31,1.06-2.37,2.37-2.37Z"/><path class="cls-5" d="m77.55,93.37h0c1.31,0,2.37,1.06,2.37,2.37h0c0,1.31-1.06,2.37-2.37,2.37h0c-1.31,0-2.37-1.06-2.37-2.37h0c0-1.31,1.06-2.37,2.37-2.37Z"/><path class="cls-5" d="m77.55,88.11h0c1.31,0,2.37,1.06,2.37,2.37h0c0,1.31-1.06,2.37-2.37,2.37h0c-1.31,0-2.37-1.06-2.37-2.37h0c0-1.31,1.06-2.37,2.37-2.37Z"/><path class="cls-5" d="m77.55,82.85h0c1.31,0,2.37,1.06,2.37,2.37h0c0,1.31-1.06,2.37-2.37,2.37h0c-1.31,0-2.37-1.06-2.37-2.37h0c0-1.31,1.06-2.37,2.37-2.37Z"/><path class="cls-5" d="m77.55,77.59h0c1.31,0,2.37,1.06,2.37,2.37h0c0,1.31-1.06,2.37-2.37,2.37h0c-1.31,0-2.37-1.06-2.37-2.37h0c0-1.31,1.06-2.37,2.37-2.37Z"/><path class="cls-5" d="m77.55,72.33h0c1.31,0,2.37,1.06,2.37,2.37h0c0,1.31-1.06,2.37-2.37,2.37h0c-1.31,0-2.37-1.06-2.37-2.37h0c0-1.31,1.06-2.37,2.37-2.37Z"/><path class="cls-5" d="m77.55,67.07h0c1.31,0,2.37,1.06,2.37,2.37h0c0,1.31-1.06,2.37-2.37,2.37h0c-1.31,0-2.37-1.06-2.37-2.37h0c0-1.31,1.06-2.37,2.37-2.37Z"/><path class="cls-5" d="m82.81,93.37h0c1.31,0,2.37,1.06,2.37,2.37h0c0,1.31-1.06,2.37-2.37,2.37h0c-1.31,0-2.37-1.06-2.37-2.37h0c0-1.31,1.06-2.37,2.37-2.37Z"/><path class="cls-5" d="m82.81,88.11h0c1.31,0,2.37,1.06,2.37,2.37h0c0,1.31-1.06,2.37-2.37,2.37h0c-1.31,0-2.37-1.06-2.37-2.37h0c0-1.31,1.06-2.37,2.37-2.37Z"/><path class="cls-5" d="m82.81,82.85h0c1.31,0,2.37,1.06,2.37,2.37h0c0,1.31-1.06,2.37-2.37,2.37h0c-1.31,0-2.37-1.06-2.37-2.37h0c0-1.31,1.06-2.37,2.37-2.37Z"/><path class="cls-5" d="m82.81,77.59h0c1.31,0,2.37,1.06,2.37,2.37h0c0,1.31-1.06,2.37-2.37,2.37h0c-1.31,0-2.37-1.06-2.37-2.37h0c0-1.31,1.06-2.37,2.37-2.37Z"/><path class="cls-5" d="m82.81,72.33h0c1.31,0,2.37,1.06,2.37,2.37h0c0,1.31-1.06,2.37-2.37,2.37h0c-1.31,0-2.37-1.06-2.37-2.37h0c0-1.31,1.06-2.37,2.37-2.37Z"/><path class="cls-5" d="m82.81,67.07h0c1.31,0,2.37,1.06,2.37,2.37h0c0,1.31-1.06,2.37-2.37,2.37h0c-1.31,0-2.37-1.06-2.37-2.37h0c0-1.31,1.06-2.37,2.37-2.37Z"/><path class="cls-5" d="m88.07,93.37h0c1.31,0,2.37,1.06,2.37,2.37h0c0,1.31-1.06,2.37-2.37,2.37h0c-1.31,0-2.37-1.06-2.37-2.37h0c0-1.31,1.06-2.37,2.37-2.37Z"/><path class="cls-5" d="m88.07,88.11h0c1.31,0,2.37,1.06,2.37,2.37h0c0,1.31-1.06,2.37-2.37,2.37h0c-1.31,0-2.37-1.06-2.37-2.37h0c0-1.31,1.06-2.37,2.37-2.37Z"/><path class="cls-5" d="m88.07,82.85h0c1.31,0,2.37,1.06,2.37,2.37h0c0,1.31-1.06,2.37-2.37,2.37h0c-1.31,0-2.37-1.06-2.37-2.37h0c0-1.31,1.06-2.37,2.37-2.37Z"/><path class="cls-5" d="m88.07,77.59h0c1.31,0,2.37,1.06,2.37,2.37h0c0,1.31-1.06,2.37-2.37,2.37h0c-1.31,0-2.37-1.06-2.37-2.37h0c0-1.31,1.06-2.37,2.37-2.37Z"/><path class="cls-5" d="m88.07,72.33h0c1.31,0,2.37,1.06,2.37,2.37h0c0,1.31-1.06,2.37-2.37,2.37h0c-1.31,0-2.37-1.06-2.37-2.37h0c0-1.31,1.06-2.37,2.37-2.37Z"/><path class="cls-5" d="m88.07,67.07h0c1.31,0,2.37,1.06,2.37,2.37h0c0,1.31-1.06,2.37-2.37,2.37h0c-1.31,0-2.37-1.06-2.37-2.37h0c0-1.31,1.06-2.37,2.37-2.37Z"/><path class="cls-5" d="m93.33,93.37h0c1.31,0,2.37,1.06,2.37,2.37h0c0,1.31-1.06,2.37-2.37,2.37h0c-1.31,0-2.37-1.06-2.37-2.37h0c0-1.31,1.06-2.37,2.37-2.37Z"/><path class="cls-5" d="m93.33,88.11h0c1.31,0,2.37,1.06,2.37,2.37h0c0,1.31-1.06,2.37-2.37,2.37h0c-1.31,0-2.37-1.06-2.37-2.37h0c0-1.31,1.06-2.37,2.37-2.37Z"/></g></g></g><g id="diagram-3"><g id="leftbench-3"><g id="Estados_Unidos_Oro-3"><path class="cls-7" d="m30.22,147.18h0c1.31,0,2.37,1.06,2.37,2.37h0c0,1.31-1.06,2.37-2.37,2.37h0c-1.31,0-2.37-1.06-2.37-2.37h0c0-1.31,1.06-2.37,2.37-2.37Z"/><path class="cls-7" d="m30.22,141.92h0c1.31,0,2.37,1.06,2.37,2.37h0c0,1.31-1.06,2.37-2.37,2.37h0c-1.31,0-2.37-1.06-2.37-2.37h0c0-1.31,1.06-2.37,2.37-2.37Z"/><path class="cls-7" d="m30.22,136.66h0c1.31,0,2.37,1.06,2.37,2.37h0c0,1.31-1.06,2.37-2.37,2.37h0c-1.31,0-2.37-1.06-2.37-2.37h0c0-1.31,1.06-2.37,2.37-2.37Z"/><path class="cls-7" d="m30.22,131.4h0c1.31,0,2.37,1.06,2.37,2.37h0c0,1.31-1.06,2.37-2.37,2.37h0c-1.31,0-2.37-1.06-2.37-2.37h0c0-1.31,1.06-2.37,2.37-2.37Z"/><path class="cls-7" d="m30.22,126.14h0c1.31,0,2.37,1.06,2.37,2.37h0c0,1.31-1.06,2.37-2.37,2.37h0c-1.31,0-2.37-1.06-2.37-2.37h0c0-1.31,1.06-2.37,2.37-2.37Z"/><path class="cls-7" d="m30.22,120.88h0c1.31,0,2.37,1.06,2.37,2.37h0c0,1.31-1.06,2.37-2.37,2.37h0c-1.31,0-2.37-1.06-2.37-2.37h0c0-1.31,1.06-2.37,2.37-2.37Z"/><path class="cls-7" d="m35.48,147.18h0c1.31,0,2.37,1.06,2.37,2.37h0c0,1.31-1.06,2.37-2.37,2.37h0c-1.31,0-2.37-1.06-2.37-2.37h0c0-1.31,1.06-2.37,2.37-2.37Z"/><path class="cls-7" d="m35.48,141.92h0c1.31,0,2.37,1.06,2.37,2.37h0c0,1.31-1.06,2.37-2.37,2.37h0c-1.31,0-2.37-1.06-2.37-2.37h0c0-1.31,1.06-2.37,2.37-2.37Z"/><path class="cls-7" d="m35.48,136.66h0c1.31,0,2.37,1.06,2.37,2.37h0c0,1.31-1.06,2.37-2.37,2.37h0c-1.31,0-2.37-1.06-2.37-2.37h0c0-1.31,1.06-2.37,2.37-2.37Z"/><path class="cls-7" d="m35.48,131.4h0c1.31,0,2.37,1.06,2.37,2.37h0c0,1.31-1.06,2.37-2.37,2.37h0c-1.31,0-2.37-1.06-2.37-2.37h0c0-1.31,1.06-2.37,2.37-2.37Z"/><path class="cls-7" d="m35.48,126.14h0c1.31,0,2.37,1.06,2.37,2.37h0c0,1.31-1.06,2.37-2.37,2.37h0c-1.31,0-2.37-1.06-2.37-2.37h0c0-1.31,1.06-2.37,2.37-2.37Z"/><path class="cls-7" d="m35.48,120.88h0c1.31,0,2.37,1.06,2.37,2.37h0c0,1.31-1.06,2.37-2.37,2.37h0c-1.31,0-2.37-1.06-2.37-2.37h0c0-1.31,1.06-2.37,2.37-2.37Z"/><path class="cls-7" d="m40.74,147.18h0c1.31,0,2.37,1.06,2.37,2.37h0c0,1.31-1.06,2.37-2.37,2.37h0c-1.31,0-2.37-1.06-2.37-2.37h0c0-1.31,1.06-2.37,2.37-2.37Z"/><path class="cls-7" d="m40.74,141.92h0c1.31,0,2.37,1.06,2.37,2.37h0c0,1.31-1.06,2.37-2.37,2.37h0c-1.31,0-2.37-1.06-2.37-2.37h0c0-1.31,1.06-2.37,2.37-2.37Z"/><path class="cls-7" d="m40.74,136.66h0c1.31,0,2.37,1.06,2.37,2.37h0c0,1.31-1.06,2.37-2.37,2.37h0c-1.31,0-2.37-1.06-2.37-2.37h0c0-1.31,1.06-2.37,2.37-2.37Z"/><path class="cls-7" d="m40.74,131.4h0c1.31,0,2.37,1.06,2.37,2.37h0c0,1.31-1.06,2.37-2.37,2.37h0c-1.31,0-2.37-1.06-2.37-2.37h0c0-1.31,1.06-2.37,2.37-2.37Z"/><path class="cls-7" d="m40.74,126.14h0c1.31,0,2.37,1.06,2.37,2.37h0c0,1.31-1.06,2.37-2.37,2.37h0c-1.31,0-2.37-1.06-2.37-2.37h0c0-1.31,1.06-2.37,2.37-2.37Z"/><path class="cls-7" d="m40.74,120.88h0c1.31,0,2.37,1.06,2.37,2.37h0c0,1.31-1.06,2.37-2.37,2.37h0c-1.31,0-2.37-1.06-2.37-2.37h0c0-1.31,1.06-2.37,2.37-2.37Z"/><path class="cls-7" d="m46,147.18h0c1.31,0,2.37,1.06,2.37,2.37h0c0,1.31-1.06,2.37-2.37,2.37h0c-1.31,0-2.37-1.06-2.37-2.37h0c0-1.31,1.06-2.37,2.37-2.37Z"/><path class="cls-7" d="m46,141.92h0c1.31,0,2.37,1.06,2.37,2.37h0c0,1.31-1.06,2.37-2.37,2.37h0c-1.31,0-2.37-1.06-2.37-2.37h0c0-1.31,1.06-2.37,2.37-2.37Z"/><path class="cls-7" d="m46,136.66h0c1.31,0,2.37,1.06,2.37,2.37h0c0,1.31-1.06,2.37-2.37,2.37h0c-1.31,0-2.37-1.06-2.37-2.37h0c0-1.31,1.06-2.37,2.37-2.37Z"/><path class="cls-7" d="m46,131.4h0c1.31,0,2.37,1.06,2.37,2.37h0c0,1.31-1.06,2.37-2.37,2.37h0c-1.31,0-2.37-1.06-2.37-2.37h0c0-1.31,1.06-2.37,2.37-2.37Z"/><path class="cls-7" d="m46,126.14h0c1.31,0,2.37,1.06,2.37,2.37h0c0,1.31-1.06,2.37-2.37,2.37h0c-1.31,0-2.37-1.06-2.37-2.37h0c0-1.31,1.06-2.37,2.37-2.37Z"/></g><g id="Estados_Unidos_Plata-3"><path class="cls-6" d="m46,120.88h0c1.31,0,2.37,1.06,2.37,2.37h0c0,1.31-1.06,2.37-2.37,2.37h0c-1.31,0-2.37-1.06-2.37-2.37h0c0-1.31,1.06-2.37,2.37-2.37Z"/><path class="cls-6" d="m51.26,147.18h0c1.31,0,2.37,1.06,2.37,2.37h0c0,1.31-1.06,2.37-2.37,2.37h0c-1.31,0-2.37-1.06-2.37-2.37h0c0-1.31,1.06-2.37,2.37-2.37Z"/><path class="cls-6" d="m51.26,141.92h0c1.31,0,2.37,1.06,2.37,2.37h0c0,1.31-1.06,2.37-2.37,2.37h0c-1.31,0-2.37-1.06-2.37-2.37h0c0-1.31,1.06-2.37,2.37-2.37Z"/><path class="cls-6" d="m51.26,136.66h0c1.31,0,2.37,1.06,2.37,2.37h0c0,1.31-1.06,2.37-2.37,2.37h0c-1.31,0-2.37-1.06-2.37-2.37h0c0-1.31,1.06-2.37,2.37-2.37Z"/><path class="cls-6" d="m51.26,131.4h0c1.31,0,2.37,1.06,2.37,2.37h0c0,1.31-1.06,2.37-2.37,2.37h0c-1.31,0-2.37-1.06-2.37-2.37h0c0-1.31,1.06-2.37,2.37-2.37Z"/><path class="cls-6" d="m51.26,126.14h0c1.31,0,2.37,1.06,2.37,2.37h0c0,1.31-1.06,2.37-2.37,2.37h0c-1.31,0-2.37-1.06-2.37-2.37h0c0-1.31,1.06-2.37,2.37-2.37Z"/><path class="cls-6" d="m51.26,120.88h0c1.31,0,2.37,1.06,2.37,2.37h0c0,1.31-1.06,2.37-2.37,2.37h0c-1.31,0-2.37-1.06-2.37-2.37h0c0-1.31,1.06-2.37,2.37-2.37Z"/><path class="cls-6" d="m56.52,147.18h0c1.31,0,2.37,1.06,2.37,2.37h0c0,1.31-1.06,2.37-2.37,2.37h0c-1.31,0-2.37-1.06-2.37-2.37h0c0-1.31,1.06-2.37,2.37-2.37Z"/><path class="cls-6" d="m56.52,141.92h0c1.31,0,2.37,1.06,2.37,2.37h0c0,1.31-1.06,2.37-2.37,2.37h0c-1.31,0-2.37-1.06-2.37-2.37h0c0-1.31,1.06-2.37,2.37-2.37Z"/><path class="cls-6" d="m56.52,136.66h0c1.31,0,2.37,1.06,2.37,2.37h0c0,1.31-1.06,2.37-2.37,2.37h0c-1.31,0-2.37-1.06-2.37-2.37h0c0-1.31,1.06-2.37,2.37-2.37Z"/><path class="cls-6" d="m56.52,131.4h0c1.31,0,2.37,1.06,2.37,2.37h0c0,1.31-1.06,2.37-2.37,2.37h0c-1.31,0-2.37-1.06-2.37-2.37h0c0-1.31,1.06-2.37,2.37-2.37Z"/><path class="cls-6" d="m56.52,126.14h0c1.31,0,2.37,1.06,2.37,2.37h0c0,1.31-1.06,2.37-2.37,2.37h0c-1.31,0-2.37-1.06-2.37-2.37h0c0-1.31,1.06-2.37,2.37-2.37Z"/><path class="cls-6" d="m56.52,120.88h0c1.31,0,2.37,1.06,2.37,2.37h0c0,1.31-1.06,2.37-2.37,2.37h0c-1.31,0-2.37-1.06-2.37-2.37h0c0-1.31,1.06-2.37,2.37-2.37Z"/><path class="cls-6" d="m61.77,147.18h0c1.31,0,2.37,1.06,2.37,2.37h0c0,1.31-1.06,2.37-2.37,2.37h0c-1.31,0-2.37-1.06-2.37-2.37h0c0-1.31,1.06-2.37,2.37-2.37Z"/><path class="cls-6" d="m61.77,141.92h0c1.31,0,2.37,1.06,2.37,2.37h0c0,1.31-1.06,2.37-2.37,2.37h0c-1.31,0-2.37-1.06-2.37-2.37h0c0-1.31,1.06-2.37,2.37-2.37Z"/><path class="cls-6" d="m61.77,136.66h0c1.31,0,2.37,1.06,2.37,2.37h0c0,1.31-1.06,2.37-2.37,2.37h0c-1.31,0-2.37-1.06-2.37-2.37h0c0-1.31,1.06-2.37,2.37-2.37Z"/><path class="cls-6" d="m61.77,131.4h0c1.31,0,2.37,1.06,2.37,2.37h0c0,1.31-1.06,2.37-2.37,2.37h0c-1.31,0-2.37-1.06-2.37-2.37h0c0-1.31,1.06-2.37,2.37-2.37Z"/><path class="cls-6" d="m61.77,126.14h0c1.31,0,2.37,1.06,2.37,2.37h0c0,1.31-1.06,2.37-2.37,2.37h0c-1.31,0-2.37-1.06-2.37-2.37h0c0-1.31,1.06-2.37,2.37-2.37Z"/><path class="cls-6" d="m61.77,120.88h0c1.31,0,2.37,1.06,2.37,2.37h0c0,1.31-1.06,2.37-2.37,2.37h0c-1.31,0-2.37-1.06-2.37-2.37h0c0-1.31,1.06-2.37,2.37-2.37Z"/></g><g id="Estados_Unidos_Bronce-3"><path class="cls-5" d="m67.03,147.18h0c1.31,0,2.37,1.06,2.37,2.37h0c0,1.31-1.06,2.37-2.37,2.37h0c-1.31,0-2.37-1.06-2.37-2.37h0c0-1.31,1.06-2.37,2.37-2.37Z"/><path class="cls-5" d="m67.03,141.92h0c1.31,0,2.37,1.06,2.37,2.37h0c0,1.31-1.06,2.37-2.37,2.37h0c-1.31,0-2.37-1.06-2.37-2.37h0c0-1.31,1.06-2.37,2.37-2.37Z"/><path class="cls-5" d="m67.03,136.66h0c1.31,0,2.37,1.06,2.37,2.37h0c0,1.31-1.06,2.37-2.37,2.37h0c-1.31,0-2.37-1.06-2.37-2.37h0c0-1.31,1.06-2.37,2.37-2.37Z"/><path class="cls-5" d="m67.03,131.4h0c1.31,0,2.37,1.06,2.37,2.37h0c0,1.31-1.06,2.37-2.37,2.37h0c-1.31,0-2.37-1.06-2.37-2.37h0c0-1.31,1.06-2.37,2.37-2.37Z"/><path class="cls-5" d="m67.03,126.14h0c1.31,0,2.37,1.06,2.37,2.37h0c0,1.31-1.06,2.37-2.37,2.37h0c-1.31,0-2.37-1.06-2.37-2.37h0c0-1.31,1.06-2.37,2.37-2.37Z"/><path class="cls-5" d="m67.03,120.88h0c1.31,0,2.37,1.06,2.37,2.37h0c0,1.31-1.06,2.37-2.37,2.37h0c-1.31,0-2.37-1.06-2.37-2.37h0c0-1.31,1.06-2.37,2.37-2.37Z"/><path class="cls-5" d="m72.29,147.18h0c1.31,0,2.37,1.06,2.37,2.37h0c0,1.31-1.06,2.37-2.37,2.37h0c-1.31,0-2.37-1.06-2.37-2.37h0c0-1.31,1.06-2.37,2.37-2.37Z"/><path class="cls-5" d="m72.29,141.92h0c1.31,0,2.37,1.06,2.37,2.37h0c0,1.31-1.06,2.37-2.37,2.37h0c-1.31,0-2.37-1.06-2.37-2.37h0c0-1.31,1.06-2.37,2.37-2.37Z"/><path class="cls-5" d="m72.29,136.66h0c1.31,0,2.37,1.06,2.37,2.37h0c0,1.31-1.06,2.37-2.37,2.37h0c-1.31,0-2.37-1.06-2.37-2.37h0c0-1.31,1.06-2.37,2.37-2.37Z"/><path class="cls-5" d="m72.29,131.4h0c1.31,0,2.37,1.06,2.37,2.37h0c0,1.31-1.06,2.37-2.37,2.37h0c-1.31,0-2.37-1.06-2.37-2.37h0c0-1.31,1.06-2.37,2.37-2.37Z"/><path class="cls-5" d="m72.29,126.14h0c1.31,0,2.37,1.06,2.37,2.37h0c0,1.31-1.06,2.37-2.37,2.37h0c-1.31,0-2.37-1.06-2.37-2.37h0c0-1.31,1.06-2.37,2.37-2.37Z"/><path class="cls-5" d="m72.29,120.88h0c1.31,0,2.37,1.06,2.37,2.37h0c0,1.31-1.06,2.37-2.37,2.37h0c-1.31,0-2.37-1.06-2.37-2.37h0c0-1.31,1.06-2.37,2.37-2.37Z"/><path class="cls-5" d="m77.55,147.18h0c1.31,0,2.37,1.06,2.37,2.37h0c0,1.31-1.06,2.37-2.37,2.37h0c-1.31,0-2.37-1.06-2.37-2.37h0c0-1.31,1.06-2.37,2.37-2.37Z"/><path class="cls-5" d="m77.55,141.92h0c1.31,0,2.37,1.06,2.37,2.37h0c0,1.31-1.06,2.37-2.37,2.37h0c-1.31,0-2.37-1.06-2.37-2.37h0c0-1.31,1.06-2.37,2.37-2.37Z"/><path class="cls-5" d="m77.55,136.66h0c1.31,0,2.37,1.06,2.37,2.37h0c0,1.31-1.06,2.37-2.37,2.37h0c-1.31,0-2.37-1.06-2.37-2.37h0c0-1.31,1.06-2.37,2.37-2.37Z"/><path class="cls-5" d="m77.55,131.4h0c1.31,0,2.37,1.06,2.37,2.37h0c0,1.31-1.06,2.37-2.37,2.37h0c-1.31,0-2.37-1.06-2.37-2.37h0c0-1.31,1.06-2.37,2.37-2.37Z"/><path class="cls-5" d="m77.55,126.14h0c1.31,0,2.37,1.06,2.37,2.37h0c0,1.31-1.06,2.37-2.37,2.37h0c-1.31,0-2.37-1.06-2.37-2.37h0c0-1.31,1.06-2.37,2.37-2.37Z"/><path class="cls-5" d="m77.55,120.88h0c1.31,0,2.37,1.06,2.37,2.37h0c0,1.31-1.06,2.37-2.37,2.37h0c-1.31,0-2.37-1.06-2.37-2.37h0c0-1.31,1.06-2.37,2.37-2.37Z"/><path class="cls-5" d="m82.81,147.18h0c1.31,0,2.37,1.06,2.37,2.37h0c0,1.31-1.06,2.37-2.37,2.37h0c-1.31,0-2.37-1.06-2.37-2.37h0c0-1.31,1.06-2.37,2.37-2.37Z"/><path class="cls-5" d="m82.81,141.92h0c1.31,0,2.37,1.06,2.37,2.37h0c0,1.31-1.06,2.37-2.37,2.37h0c-1.31,0-2.37-1.06-2.37-2.37h0c0-1.31,1.06-2.37,2.37-2.37Z"/><path class="cls-5" d="m82.81,136.66h0c1.31,0,2.37,1.06,2.37,2.37h0c0,1.31-1.06,2.37-2.37,2.37h0c-1.31,0-2.37-1.06-2.37-2.37h0c0-1.31,1.06-2.37,2.37-2.37Z"/><path class="cls-5" d="m82.81,131.4h0c1.31,0,2.37,1.06,2.37,2.37h0c0,1.31-1.06,2.37-2.37,2.37h0c-1.31,0-2.37-1.06-2.37-2.37h0c0-1.31,1.06-2.37,2.37-2.37Z"/></g></g></g><path class="cls-2" d="m3.64,21.42H1.18s-.03.01-.03.03v2.17s.01.03.03.03h1.68c.05,0,.08.03.08.08v.22c0,.05-.03.08-.08.08h-1.68s-.03.01-.03.03v2.18s.01.03.03.03h2.46c.05,0,.08.03.08.08v.22c0,.05-.03.08-.08.08H.81c-.05,0-.08-.03-.08-.08v-5.44c0-.05.03-.08.08-.08h2.83c.05,0,.08.03.08.08v.22c0,.05-.03.08-.08.08Z"/><path class="cls-2" d="m4.91,26.39c-.24-.19-.36-.44-.36-.74v-.07c0-.05.03-.08.08-.08h.25s.04,0,.06.02c.02.01.02.03.02.05v.07c0,.19.08.36.25.49.17.14.38.2.65.2s.46-.07.62-.2c.16-.14.24-.31.24-.52,0-.15-.04-.28-.13-.38-.08-.1-.19-.17-.31-.23-.12-.06-.3-.13-.52-.21-.25-.08-.45-.17-.61-.25-.16-.08-.3-.19-.41-.34-.11-.15-.16-.33-.16-.56,0-.33.12-.59.35-.78.23-.19.54-.29.92-.29s.69.1.92.3c.23.2.35.46.35.76v.02c0,.05-.03.08-.08.08h-.24c-.05,0-.08-.02-.08-.06v-.06c0-.2-.08-.37-.24-.5-.16-.13-.37-.2-.63-.2s-.46.06-.62.19c-.15.13-.23.3-.23.5,0,.14.04.26.12.36.08.1.18.17.3.23s.29.12.5.2c.26.09.47.18.64.26.16.08.3.19.42.34s.18.34.18.57c0,.33-.12.6-.35.8-.23.2-.54.3-.93.3s-.7-.1-.94-.29Z"/><path class="cls-2" d="m9.52,22.95h-.79s-.03.01-.03.03v2.55c0,.27.05.46.16.57.11.11.28.16.51.15h.14c.05,0,.08.03.08.08v.22c0,.05-.03.08-.08.09h-.21c-.33,0-.58-.07-.76-.21-.17-.14-.26-.4-.26-.78v-2.66s-.01-.03-.03-.03h-.41c-.05,0-.08-.03-.08-.08v-.18c0-.05.03-.08.08-.08h.41s.03-.01.03-.03v-.9c0-.05.03-.08.08-.08h.26c.05,0,.08.03.08.08v.9s.01.03.03.03h.79c.05,0,.08.03.08.08v.18c0,.05-.03.08-.08.08Z"/><path class="cls-2" d="m12.76,22.91c.23.24.34.57.34.98v2.68c0,.05-.03.08-.08.08h-.26c-.05,0-.08-.03-.08-.08v-.33s0-.02-.01-.02c0,0-.02,0-.03.01-.12.16-.28.28-.47.36-.19.08-.4.12-.63.12-.33,0-.61-.09-.84-.26-.23-.18-.34-.46-.34-.86,0-.42.13-.74.4-.96.27-.22.64-.32,1.1-.32h.79s.03-.01.03-.03v-.37c0-.3-.08-.54-.22-.71-.15-.18-.37-.26-.66-.26-.22,0-.42.06-.57.17s-.25.27-.28.45c0,.05-.04.07-.09.07l-.28-.02s-.05,0-.06-.02c-.01-.02-.02-.03-.01-.06.04-.29.18-.53.42-.71.24-.18.54-.27.89-.27.42,0,.74.12.96.36Zm-.4,3.19c.21-.16.32-.38.32-.67v-.75s-.01-.03-.03-.03h-.77c-.33,0-.6.08-.8.24-.2.16-.3.38-.3.68,0,.26.08.46.23.58.15.13.35.19.6.19.29,0,.54-.08.75-.24Z"/><path class="cls-2" d="m16.46,21.04h.26c.05,0,.08.03.08.08v5.44c0,.05-.03.08-.08.08h-.26c-.05,0-.08-.03-.08-.08v-.37s0-.02-.01-.02c0,0-.02,0-.03.02-.1.17-.23.29-.39.38-.17.09-.36.14-.58.14-.33,0-.6-.1-.82-.3-.22-.2-.35-.48-.41-.83-.02-.13-.04-.28-.04-.44,0-.16,0-.33,0-.5,0-.44.01-.76.04-.94.05-.36.19-.64.41-.84s.5-.3.85-.3c.44,0,.75.17.95.52.01.01.02.02.03.01,0,0,.01-.01.01-.03v-1.93c0-.05.03-.08.08-.08Zm-.08,3.58c0-.38-.02-.69-.06-.91-.03-.23-.12-.42-.27-.57-.15-.15-.34-.22-.58-.22s-.45.07-.61.22-.26.33-.3.57c-.04.22-.06.53-.06.92,0,.41.02.71.05.9.03.24.13.43.29.58.16.15.37.22.61.22s.44-.07.59-.22c.15-.15.24-.34.28-.58.03-.23.05-.54.05-.9Z"/><path class="cls-2" d="m18.4,26.39c-.24-.21-.39-.49-.44-.83-.03-.27-.05-.58-.05-.94s.02-.67.05-.94c.04-.34.19-.62.43-.83.25-.21.55-.32.92-.32s.67.1.91.31c.25.21.39.48.43.82.03.22.05.54.05.94s-.02.72-.05.94c-.04.35-.19.62-.43.83-.24.21-.55.31-.92.31s-.67-.1-.92-.31Zm1.56-.3c.17-.15.27-.36.3-.62.02-.15.02-.44.02-.86s0-.7-.02-.86c-.03-.26-.13-.46-.3-.62-.17-.15-.39-.23-.64-.23s-.47.08-.64.23-.27.36-.3.62c-.02.15-.02.44-.02.86s0,.7.02.86c.03.26.13.46.3.62s.39.23.64.23.47-.08.64-.23Z"/><path class="cls-2" d="m21.99,26.39c-.24-.19-.36-.44-.36-.74v-.07c0-.05.03-.08.08-.08h.25s.04,0,.06.02c.02.01.02.03.02.05v.07c0,.19.08.36.25.49.17.14.38.2.65.2s.46-.07.62-.2c.16-.14.24-.31.24-.52,0-.15-.04-.28-.13-.38-.08-.1-.19-.17-.31-.23-.12-.06-.3-.13-.52-.21-.25-.08-.45-.17-.61-.25-.16-.08-.3-.19-.41-.34-.11-.15-.16-.33-.16-.56,0-.33.12-.59.35-.78.23-.19.54-.29.92-.29s.69.1.92.3c.23.2.35.46.35.76v.02c0,.05-.03.08-.08.08h-.24c-.05,0-.08-.02-.08-.06v-.06c0-.2-.08-.37-.24-.5-.16-.13-.37-.2-.63-.2s-.46.06-.62.19c-.15.13-.23.3-.23.5,0,.14.04.26.12.36.08.1.18.17.3.23s.29.12.5.2c.26.09.47.18.64.26.16.08.3.19.42.34s.18.34.18.57c0,.33-.12.6-.35.8-.23.2-.54.3-.93.3s-.7-.1-.94-.29Z"/><path class="cls-2" d="m4.94,33.5c-.24-.14-.42-.33-.56-.58s-.2-.53-.2-.86v-3.94c0-.05.03-.08.08-.08h.26c.05,0,.08.03.08.08v3.98c0,.37.11.67.32.89s.49.34.84.34.63-.11.84-.34c.21-.23.32-.52.32-.89v-3.98c0-.05.03-.08.08-.08h.26c.05,0,.08.03.08.08v3.94c0,.33-.07.61-.2.86-.13.25-.32.44-.56.58-.24.14-.52.2-.83.2s-.59-.07-.83-.2Z"/><path class="cls-2" d="m10.97,29.91c.21.23.32.55.32.95v2.7c0,.05-.03.08-.08.08h-.26c-.05,0-.08-.03-.08-.08v-2.64c0-.3-.08-.54-.24-.72s-.37-.27-.64-.27c-.25,0-.46.08-.62.23s-.26.36-.29.62v2.78c0,.05-.03.08-.08.08h-.26c-.05,0-.08-.03-.08-.08v-3.87c0-.05.03-.08.08-.08h.26c.05,0,.08.03.08.08v.34s0,.03.01.03c0,0,.01,0,.02-.01.11-.16.25-.28.42-.37.17-.09.36-.13.58-.13.37,0,.66.12.87.35Z"/><path class="cls-2" d="m12.48,28.7c-.07-.07-.1-.15-.1-.25s.03-.18.1-.25.15-.1.25-.1.18.03.24.1.09.15.09.25-.03.19-.09.25-.14.1-.24.1-.19-.03-.25-.1Zm.04,4.86v-3.87c0-.05.03-.08.08-.08h.26c.05,0,.08.03.08.08v3.87c0,.05-.03.08-.08.08h-.26c-.05,0-.08-.03-.08-.08Z"/><path class="cls-2" d="m16.46,28.04h.26c.05,0,.08.03.08.08v5.44c0,.05-.03.08-.08.08h-.26c-.05,0-.08-.03-.08-.08v-.37s0-.02-.01-.02c0,0-.02,0-.03.02-.1.17-.23.29-.39.38-.17.09-.36.14-.58.14-.33,0-.6-.1-.82-.3-.22-.2-.35-.48-.41-.83-.02-.13-.04-.28-.04-.44,0-.16,0-.33,0-.5,0-.44.01-.76.04-.94.05-.36.19-.64.41-.84s.5-.3.85-.3c.44,0,.75.17.95.52.01.01.02.02.03.01,0,0,.01-.01.01-.03v-1.93c0-.05.03-.08.08-.08Zm-.08,3.58c0-.38-.02-.69-.06-.91-.03-.23-.12-.42-.27-.57-.15-.15-.34-.22-.58-.22s-.45.07-.61.22-.26.33-.3.57c-.04.22-.06.53-.06.92,0,.41.02.71.05.9.03.24.13.43.29.58.16.15.37.22.61.22s.44-.07.59-.22c.15-.15.24-.34.28-.58.03-.23.05-.54.05-.9Z"/><path class="cls-2" d="m18.4,33.39c-.24-.21-.39-.49-.44-.83-.03-.27-.05-.58-.05-.94s.02-.67.05-.94c.04-.34.19-.62.43-.83.25-.21.55-.32.92-.32s.67.1.91.31c.25.21.39.48.43.82.03.22.05.54.05.94s-.02.72-.05.94c-.04.35-.19.62-.43.83-.24.21-.55.31-.92.31s-.67-.1-.92-.31Zm1.56-.3c.17-.15.27-.36.3-.62.02-.15.02-.44.02-.86s0-.7-.02-.86c-.03-.26-.13-.46-.3-.62-.17-.15-.39-.23-.64-.23s-.47.08-.64.23-.27.36-.3.62c-.02.15-.02.44-.02.86s0,.7.02.86c.03.26.13.46.3.62s.39.23.64.23.47-.08.64-.23Z"/><path class="cls-2" d="m21.99,33.39c-.24-.19-.36-.44-.36-.74v-.07c0-.05.03-.08.08-.08h.25s.04,0,.06.02c.02.01.02.03.02.05v.07c0,.19.08.36.25.49.17.14.38.2.65.2s.46-.07.62-.2c.16-.14.24-.31.24-.52,0-.15-.04-.28-.13-.38-.08-.1-.19-.17-.31-.23-.12-.06-.3-.13-.52-.21-.25-.08-.45-.17-.61-.25-.16-.08-.3-.19-.41-.34-.11-.15-.16-.33-.16-.56,0-.33.12-.59.35-.78.23-.19.54-.29.92-.29s.69.1.92.3c.23.2.35.46.35.76v.02c0,.05-.03.08-.08.08h-.24c-.05,0-.08-.02-.08-.06v-.06c0-.2-.08-.37-.24-.5-.16-.13-.37-.2-.63-.2s-.46.06-.62.19c-.15.13-.23.3-.23.5,0,.14.04.26.12.36.08.1.18.17.3.23s.29.12.5.2c.26.09.47.18.64.26.16.08.3.19.42.34s.18.34.18.57c0,.33-.12.6-.35.8-.23.2-.54.3-.93.3s-.7-.1-.94-.29Z"/><text class="cls-3" transform="translate(1.87 82.9)"><tspan class="cls-11" x="0" y="0">C</tspan><tspan x="4.16" y="0">anadá</tspan></text><text class="cls-3" transform="translate(3.5 136.08)"><tspan x="0" y="0">Méxi</tspan><tspan class="cls-12" x="13.65" y="0">c</tspan><tspan x="17.28" y="0">o</tspan></text><text class="cls-1" transform="translate(29.18 7.65)"><tspan x="0" y="0">40</tspan></text><text class="cls-1" transform="translate(66.4 115.4)"><tspan x="0" y="0">22</tspan></text><text class="cls-1" transform="translate(76.06 62.96)"><tspan class="cls-8" x="0" y="0">2</tspan><tspan x="4.26" y="0">1</tspan></text><text class="cls-1" transform="translate(96.58 7.65)"><tspan x="0" y="0">36</tspan></text><text class="cls-1" transform="translate(29.38 62.96)"><tspan x="0" y="0">30</tspan></text><text class="cls-1" transform="translate(29.26 115.4)"><tspan class="cls-9" x="0" y="0">2</tspan><tspan x="4.34" y="0">3</tspan></text><text class="cls-1" transform="translate(57.98 7.65)"><tspan x="0" y="0">42</tspan></text><text class="cls-1" transform="translate(54.7 62.96)"><tspan class="cls-4" x="0" y="0">2</tspan><tspan x="4.34" y="0">3</tspan></text><text class="cls-1" transform="translate(48.88 115.4)"><tspan x="0" y="0">19</tspan></text><text class="cls-3" transform="translate(108.3 128.1)"><tspan x="0" y="0">O</tspan><tspan class="cls-10" x="4.3" y="0">r</tspan><tspan x="6.85" y="0">o</tspan></text><circle class="cls-7" cx="102.45" cy="125.53" r="3.09"/><text class="cls-3" transform="translate(108.3 139.17)"><tspan x="0" y="0">Pl</tspan><tspan class="cls-12" x="5.71" y="0">a</tspan><tspan x="9.34" y="0">ta</tspan></text><circle class="cls-6" cx="102.45" cy="136.6" r="3.09"/><text class="cls-3" transform="translate(108.3 150.24)"><tspan x="0" y="0">B</tspan><tspan class="cls-10" x="4.29" y="0">r</tspan><tspan x="6.84" y="0">on</tspan><tspan class="cls-12" x="14.45" y="0">c</tspan><tspan x="18.08" y="0">e</tspan></text><circle class="cls-5" cx="102.45" cy="147.67" r="3.09"/></g></svg>